<mxfile host="app.diagrams.net" modified="2023-05-24T16:27:34.405Z" agent="Mozilla/5.0 (Macintosh; Intel Mac OS X 10_15_7) AppleWebKit/537.36 (KHTML, like Gecko) Chrome/113.0.0.0 Safari/537.36" version="21.3.3" etag="4jlyEVNMLI49x_9h8dA1" type="github">
  <diagram name="Страница 1" id="kP-wOBjOg15puJsNhDgH">
    <mxGraphModel>
      <root>
        <mxCell id="0" />
        <mxCell id="1" parent="0" />
      </root>
    </mxGraphModel>
  </diagram>
</mxfile>
